<svg data-v-8887f678="" version="1.1" id="svg_1" preserveAspectRatio="xMidYMid meet" xmlns="http://www.w3.org/2000/svg" xmlns:xlink="http://www.w3.org/1999/xlink" x="0px" y="0px" viewBox="0 0 200 200" xml:space="preserve" width="3rem" height="3rem" class="logo-svg"><title data-v-8887f678="">LogoAloneCircleColor.2</title><g data-v-8887f678="" class="logo-g"><polygon data-v-8887f678="" points="87.5,55.9 28.2,158.6 146.7,158.6 " fill="#FD8900"></polygon><polygon data-v-8887f678="" points="112.5,144.1 171.8,41.4 53.3,41.4 " fill="#FD8900"></polygon><polygon data-v-8887f678="" points="112.5,144.1 125.5,121.7 87.5,55.9 74.5,78.3 " fill="#FFCD05"></polygon><path data-v-8887f678="" d="M100,8.5c50.5,0,91.5,41,91.5,91.5s-41,91.5-91.5,91.5S8.5,150.5,8.5,100S49.5,8.5,100,8.5 M100,0C44.8,0,0,44.8,0,100s44.8,100,100,100s100-44.8,100-100S155.2,0,100,0L100,0z" fill="#FD8900"></path></g></svg>